<?xml version="1.0" encoding="utf-8"?>
<!-- Generator: Adobe Illustrator 24.1.2, SVG Export Plug-In . SVG Version: 6.00 Build 0)  -->
<svg version="1.1" id="Слой_1" xmlns="http://www.w3.org/2000/svg" xmlns:xlink="http://www.w3.org/1999/xlink" x="0px" y="0px"
	 width="20px" height="20px" viewBox="0 0 20 20" enable-background="new 0 0 20 20" xml:space="preserve">
<g>
	<path fill="#1D4076" d="M19.3,16.6c0.8,0.8,0.8,1.9,0,2.7c-0.4,0.4-0.9,0.6-1.4,0.6c-0.5,0-1-0.2-1.3-0.6L10,12.7l-6.6,6.6
		c-0.8,0.8-1.9,0.8-2.7,0c-0.8-0.8-0.8-1.9,0-2.7L7.3,10L0.7,3.4c-0.8-0.8-0.8-1.9,0-2.7C1,0.4,1.4,0.2,1.9,0.1
		c0.5,0,1.1,0.2,1.5,0.6L10,7.3l6.6-6.6c0.8-0.8,1.9-0.8,2.7,0c0.8,0.8,0.8,1.9,0,2.7L12.7,10L19.3,16.6z"/>
</g>
</svg>
