<svg width="17" height="20" viewBox="0 0 17 20" fill="none" xmlns="http://www.w3.org/2000/svg">
<path d="M0.900776 16.9886L0.904992 16.9745C0.952962 16.8146 0.99407 16.654 1.03573 16.4912C1.06092 16.3928 1.08631 16.2935 1.11354 16.1932C1.18476 15.9309 1.26678 15.6686 1.38566 15.4239L1.38571 15.4238C2.15893 13.8367 3.41305 12.9836 5.09926 12.9038C5.29498 12.8942 5.4594 12.9289 5.57948 13.0237C5.70179 13.1202 5.76036 13.2648 5.77324 13.4356L5.77327 13.436C5.78605 13.6151 5.74416 13.7745 5.63209 13.8922C5.52137 14.0084 5.35645 14.0689 5.15421 14.082L5.15408 14.082C4.48773 14.1245 3.91815 14.3155 3.44644 14.6535C2.97459 14.9917 2.59514 15.4809 2.31549 16.1282L2.31546 16.1283C2.16254 16.4815 2.09438 16.8927 2.04878 17.2986C2.02025 17.554 2.05618 17.6947 2.12762 17.7742C2.19908 17.8537 2.3315 17.9004 2.57121 17.9004H2.57125C5.74651 17.9015 8.92204 17.9015 12.0973 17.9015C12.3125 17.9015 12.5277 17.9016 12.7427 17.9017C13.3161 17.9021 13.889 17.9024 14.462 17.9004M0.900776 16.9886L14.4624 18.0004M0.900776 16.9886V17.0032C0.900776 17.2413 0.900776 17.4788 0.900001 17.7153L0.899962 17.7269L0.902615 17.7383C0.985799 18.0949 1.13352 18.3892 1.348 18.6179C1.56267 18.8468 1.8397 19.0051 2.17377 19.0965L2.18672 19.1H2.20014H2.22475H2.24936H2.27397H2.29858H2.32319H2.3478H2.37241H2.39702H2.42163H2.44624H2.47085H2.49546H2.52007H2.54468H2.56928H2.59389H2.6185H2.64311H2.66772H2.69233H2.71694H2.74155H2.76616H2.79077H2.81538H2.83999H2.8646H2.88921H2.91382H2.93842H2.96303H2.98764H3.01225H3.03686H3.06147H3.08608H3.11069H3.1353H3.15991H3.18452H3.20913H3.23374H3.25835H3.28295H3.30756H3.33217H3.35678H3.38139H3.406H3.43061H3.45522H3.47983H3.50444H3.52905H3.55366H3.57827H3.60288H3.62749H3.65209H3.6767H3.70131H3.72592H3.75053H3.77514H3.79975H3.82436H3.84897H3.87358H3.89819H3.9228H3.94741H3.97202H3.99662H4.02123H4.04584H4.07045H4.09506H4.11967H4.14428H4.16889H4.1935H4.21811H4.24272H4.26733H4.29194H4.31655H4.34116H4.36576H4.39037H4.41498H4.43959H4.4642H4.48881H4.51342H4.53803H4.56264H4.58725H4.61186H4.63647H4.66108H4.68569H4.7103H4.7349H4.75951H4.78412H4.80873H4.83334H4.85795H4.88256H4.90717H4.93178H4.95639H4.981H5.00561H5.03022H5.05483H5.07943H5.10404H5.12865H5.15326H5.17787H5.20248H5.22709H5.2517H5.27631H5.30092H5.32553H5.35014H5.37475H5.39936H5.42397H5.44857H5.47318H5.49779H5.5224H5.54701H5.57162H5.59623H5.62084H5.64545H5.67006H5.69467H5.71928H5.74389H5.7685H5.79311H5.81771H5.84232H5.86693H5.89154H5.91615H5.94076H5.96537H5.98998H6.01459H6.0392H6.06381H6.08842H6.11303H6.13764H6.16224H6.18685H6.21146H6.23607H6.26068H6.28529H6.3099H6.33451H6.35912H6.38373H6.40834H6.43295H6.45756H6.48217H6.50678H6.53138H6.55599H6.5806H6.60521H6.62982H6.65443H6.67904H6.70365H6.72826H6.75287H6.77748H6.80209H6.8267H6.85131H6.87592H6.90052H6.92513H6.94974H6.97435H6.99896H7.02357H7.04818H7.07279H7.0974H7.12201H7.14662H7.17123H7.19584H7.22045H7.24505H7.26966H7.29427H7.31888H7.34349H7.3681H7.39271H7.41732H7.44193H7.46654H7.49115H7.51576H7.54037H7.56498H7.58958H7.61419H7.6388H7.66341H7.68802H7.71263H7.73724H7.76185H7.78646H7.81107H7.83568H7.86029H7.8849H7.90951H7.93412H7.95872H7.98333H8.00794H8.03255H8.05716H8.08177H8.10638H8.13099H8.1556H8.18021H8.20482H8.22943H8.25404H8.27865H8.30326H8.32786H8.35247H8.37708H8.40169H8.4263H8.45091H8.47552H8.50013H8.52474H8.54935H8.57396H8.59857H8.62318H8.64779H8.67239H8.697H8.72161H8.74622H8.77083H8.79544H8.82005H8.84466H8.86927H8.89388H8.91849H8.9431H8.96771H8.99232H9.01692H9.04153H9.06614H9.09075H9.11536H9.13997H9.16458H9.18919H9.2138H9.23841H9.26302H9.28763H9.31224H9.33685H9.36146H9.38607H9.41067H9.43528H9.45989H9.4845H9.50911H9.53372H9.55833H9.58294H9.60755H9.63216H9.65677H9.68138H9.70599H9.7306H9.75521H9.77981H9.80442H9.82903H9.85364H9.87825H9.90286H9.92747H9.95208H9.97669H10.0013H10.0259H10.0505H10.0751H10.0997H10.1243H10.149H10.1736H10.1982H10.2228H10.2474H10.272H10.2966H10.3212H10.3458H10.3704H10.395H10.4197H10.4443H10.4689H10.4935H10.5181H10.5427H10.5673H10.5919H10.6165H10.6411H10.6657H10.6904H10.715H10.7396H10.7642H10.7888H10.8134H10.838H10.8626H10.8872H10.9118H10.9365H10.9611H10.9857H11.0103H11.0349H11.0595H11.0841H11.1087H11.1333H11.1579H11.1825H11.2072H11.2318H11.2564H11.281H11.3056H11.3302H11.3548H11.3794H11.404H11.4286H11.4532H11.4779H11.5025H11.5271H11.5517H11.5763H11.6009H11.6255H11.6501H11.6747H11.6993H11.724H11.7486H11.7732H11.7978H11.8224H11.847H11.8716H11.8962H11.9208H11.9454H11.97H11.9947H12.0193H12.0439H12.0685H12.0931H12.1177H12.1423H12.1669H12.1915H12.2161H12.2407H12.2654H12.29H12.3146H12.3392H12.3638H12.3884H12.413H12.4376H12.4622H12.4868H12.5114H12.5361H12.5607H12.5853H12.6099H12.6345H12.6591H12.6837H12.7083H12.7329H12.7575H12.7822H12.8068H12.8314H12.856H12.8806H12.9052H12.9298H12.9544H12.979H13.0036H13.0282H13.0529H13.0775H13.1021H13.1267H13.1513H13.1759H13.2005H13.2251H13.2497H13.2743H13.2989H13.3236H13.3482H13.3728H13.3974H13.422H13.4466H13.4712H13.4958H13.5204H13.545H13.5696H13.5943H13.6189H13.6435H13.6681H13.6927H13.7173H13.7419H13.7665H13.7911H13.8157H13.8404H13.865H13.8896H13.9142H13.9388H13.9634H13.988H14.0126H14.0372H14.0618H14.0864H14.1111H14.1357H14.1603H14.1849H14.2095H14.2341H14.2587H14.2833H14.3079H14.3325H14.3571H14.3818H14.4064H14.431H14.4556H14.4802H14.5048H14.5294H14.554H14.5786H14.6032H14.6278H14.6525H14.6771H14.7017H14.7263H14.7509H14.7755H14.8001H14.8135L14.8265 19.0965C15.1604 19.0051 15.4376 18.8468 15.6524 18.6179C15.867 18.3892 16.0147 18.0949 16.0974 17.7382L16.1 17.727V17.7156V17.7142V17.7128V17.7114V17.7101V17.7087V17.7073V17.7059V17.7045V17.7031V17.7017V17.7003V17.699V17.6976V17.6962V17.6948V17.6934V17.692V17.6906V17.6892V17.6879V17.6865V17.6851V17.6837V17.6823V17.6809V17.6795V17.6782V17.6768V17.6754V17.674V17.6726V17.6712V17.6698V17.6684V17.667V17.6657V17.6643V17.6629V17.6615V17.6601V17.6587V17.6573V17.6559V17.6546V17.6532V17.6518V17.6504V17.649V17.6476V17.6462V17.6448V17.6434V17.6421V17.6407V17.6393V17.6379V17.6365V17.6351V17.6337V17.6323V17.6309V17.6296V17.6282V17.6268V17.6254V17.624V17.6226V17.6212V17.6198V17.6184V17.6171V17.6157V17.6143V17.6129V17.6115V17.6101V17.6087V17.6073V17.6059V17.6046V17.6032V17.6018V17.6004V17.599V17.5976V17.5962V17.5948V17.5934V17.592V17.5907V17.5893V17.5879V17.5865V17.5851V17.5837V17.5823V17.5809V17.5795V17.5781V17.5768V17.5754V17.574V17.5726V17.5712V17.5698V17.5684V17.567V17.5656V17.5642V17.5629V17.5615V17.5601V17.5587V17.5573V17.5559V17.5545V17.5531V17.5517V17.5503V17.5489V17.5476V17.5462V17.5448V17.5434V17.542V17.5406V17.5392V17.5378V17.5364V17.535V17.5336V17.5323V17.5309V17.5295V17.5281V17.5267V17.5253V17.5239V17.5225V17.5211V17.5197V17.5183V17.517V17.5156V17.5142V17.5128V17.5114V17.51V17.5086V17.5072V17.5058V17.5044V17.503V17.5017V17.5003V17.4989V17.4975V17.4961V17.4947V17.4933V17.4919V17.4905V17.4891V17.4877V17.4863V17.485V17.4836V17.4822V17.4808V17.4794V17.478V17.4766V17.4752V17.4738V17.4724V17.471V17.4696V17.4682V17.4669V17.4655V17.4641V17.4627V17.4613V17.4599V17.4585V17.4571V17.4557V17.4543V17.4529V17.4515V17.4502V17.4488V17.4474V17.446V17.4446V17.4432V17.4418V17.4404V17.439V17.4376V17.4362V17.4348V17.4334V17.4321V17.4307V17.4293V17.4279V17.4265V17.4251V17.4237V17.4223V17.4209V17.4195V17.4181V17.4167V17.4153V17.4139V17.4126V17.4112V17.4098V17.4084V17.407V17.4056V17.4042V17.4028V17.4014V17.4V17.3986V17.3972V17.3958V17.3945V17.3931V17.3917V17.3903V17.3889V17.3875V17.3861V17.3847V17.3833V17.3819V17.3805V17.3791V17.3777V17.3763V17.375V17.3736V17.3722V17.3708V17.3694V17.368V17.3666V17.3652V17.3638V17.3624V17.361V17.3596V17.3582V17.3568V17.3555V17.3541V17.3527V17.3513V17.3499V17.3485V17.3471V17.3457V17.3443V17.3429V17.3415V17.3401V17.3387V17.3373V17.3359V17.3346V17.3332V17.3318V17.3304V17.329V17.3276V17.3262V17.3248V17.3234V17.322V17.3206V17.3192V17.3178V17.3164V17.3151V17.3137V17.3123V17.3109V17.3095V17.3081V17.3067V17.3053V17.3039V17.3025V17.3011V17.2997V17.2983V17.2969V17.2956V17.2942V17.2928V17.2914V17.29V17.2886V17.2872V17.2858V17.2844V17.283V17.2816V17.2802V17.2788V17.2774V17.276V17.2747V17.2733V17.2719V17.2705V17.2691V17.2677V17.2663V17.2649V17.2635V17.2621V17.2607V17.2593V17.2579V17.2565V17.2552V17.2538V17.2524V17.251V17.2496V17.2482V17.2468V17.2454V17.244V17.2426V17.2412V17.2398V17.2384V17.237V17.2357V17.2343V17.2329V17.2315V17.2301V17.2287V17.2273V17.2259V17.2245V17.2231V17.2217V17.2203V17.2189V17.2175V17.2162V17.2148V17.2134V17.212V17.2106V17.2092V17.2078V17.2064V17.205V17.2036V17.2022V17.2008V17.1994V17.198V17.1967V17.1953V17.1939V17.1925V17.1911V17.1897V17.1883V17.1869V17.1855V17.1841V17.1827V17.1813V17.1799V17.1785V17.1772V17.1758V17.1744V17.173V17.1716V17.1702V17.1688V17.1674V17.166V17.1646V17.1632V17.1618V17.1604V17.1591V17.1577V17.1563V17.1549V17.1535V17.1521V17.1507V17.1493V17.1479V17.1465V17.1451V17.1437V17.1423V17.141V17.1396V17.1382V17.1368V17.1354V17.134V17.1326V17.1312V17.1298V17.1284V17.127V17.1256V17.1243V17.1229V17.1215V17.1201V17.1187V17.1173V17.1159V17.1145V17.1131V17.1117V17.1103V17.1089V17.1076V17.1062V17.1048V17.1034V17.102V17.1006V17.0992V17.0978V17.0964V17.095V17.0936V17.0922V17.0909V17.0895V17.0881V17.0867V17.0853V17.0839V17.0825V17.0811V17.0797V17.0783V17.0769V17.0755V17.0742V17.0728V17.0714V17.07V17.0686V17.0672V17.0658V17.0644V17.063V17.0616V17.0602V17.0589V17.0575V17.0561V17.0547V17.0533V17.0519V17.0505V17.0491V17.0477V17.0463V17.045V17.0436V17.0422V17.0408V17.0394V17.038V17.0366V17.0352V17.0338V17.0324V17.031V17.0297V17.0283V17.0269V17.0255V17.0241V17.0227V17.0213V17.0199V17.0185V17.0171V17.0158V17.0144V17.013V17.0116V17.0102V17.0088V17.0074V17.006V17.0046V17.0032V16.9924L16.0977 16.9819L16.0835 16.9172C16.0435 16.7343 16.0035 16.5512 15.9619 16.3676L15.9619 16.3676C15.5124 14.3858 13.7536 12.8898 11.8629 12.9001L11.8634 13.0001M0.900776 16.9886L11.8634 13.0001M14.462 17.9004C14.462 17.9004 14.4621 17.9004 14.4621 17.9004L14.4624 18.0004M14.462 17.9004C14.4619 17.9004 14.4619 17.9004 14.4618 17.9004L14.4624 18.0004M14.462 17.9004C14.6759 17.899 14.7938 17.8528 14.8612 17.7763C14.9308 17.6973 14.9692 17.5613 14.9615 17.3253L14.9615 17.3252C14.9094 15.6651 13.6102 14.2255 12.0775 14.1025M14.4624 18.0004C14.9114 17.9976 15.0772 17.808 15.0615 17.3221C15.0079 15.6162 13.6737 14.1297 12.0847 14.0027M12.0775 14.1025L12.0784 14.1025L12.0847 14.0027M12.0775 14.1025C12.0773 14.1024 12.077 14.1024 12.0767 14.1024L12.0847 14.0027M12.0775 14.1025L12.0674 14.1018C11.9834 14.0966 11.895 14.0911 11.8066 14.0786M12.0847 14.0027L12.0749 14.0021C11.9896 13.9968 11.9044 13.9915 11.8197 13.9795M5.14772 13.9822C3.78326 14.0691 2.79478 14.7665 2.22369 16.0886C2.06455 16.4561 1.9952 16.8798 1.9494 17.2875C1.89066 17.813 2.07775 18.0004 2.57121 18.0004L5.14772 13.9822ZM5.14772 13.9822C5.52241 13.9579 5.6963 13.7622 5.67353 13.4431L5.14772 13.9822ZM11.8197 13.9795L11.8075 14.0787C11.8072 14.0787 11.8069 14.0787 11.8066 14.0786M11.8197 13.9795C11.4745 13.9371 11.3053 13.7514 11.3283 13.4431M11.8197 13.9795L11.8057 14.0785C11.806 14.0785 11.8063 14.0786 11.8066 14.0786M11.8066 14.0786C11.6201 14.0556 11.466 13.9921 11.3621 13.8785C11.2565 13.7631 11.2156 13.6101 11.2286 13.4358M11.3283 13.4431L11.2286 13.4358M11.3283 13.4431C11.35 13.1484 11.5265 13.0012 11.8634 13.0001M11.3283 13.4431L11.2286 13.4357C11.2286 13.4357 11.2286 13.4357 11.2286 13.4358M11.2286 13.4358C11.2408 13.2694 11.2984 13.1303 11.4138 13.0345C11.5272 12.9404 11.6817 12.9006 11.8631 12.9001L11.8634 13.0001" fill="white" stroke="white" stroke-width="0.2"/>
<path d="M8.91506 0.902707L8.90367 0.9H8.89195H8.89042H8.88889H8.88736H8.88583H8.8843H8.88277H8.88124H8.87971H8.87818H8.87665H8.87512H8.87359H8.87206H8.87052H8.86899H8.86746H8.86593H8.8644H8.86287H8.86134H8.85981H8.85828H8.85675H8.85522H8.85369H8.85216H8.85063H8.84909H8.84756H8.84603H8.8445H8.84297H8.84144H8.83991H8.83838H8.83685H8.83532H8.83379H8.83226H8.83073H8.82919H8.82766H8.82613H8.8246H8.82307H8.82154H8.82001H8.81848H8.81695H8.81542H8.81388H8.81235H8.81082H8.80929H8.80776H8.80623H8.8047H8.80317H8.80164H8.80011H8.79857H8.79704H8.79551H8.79398H8.79245H8.79092H8.78939H8.78786H8.78633H8.78479H8.78326H8.78173H8.7802H8.77867H8.77714H8.77561H8.77408H8.77255H8.77101H8.76948H8.76795H8.76642H8.76489H8.76336H8.76183H8.7603H8.75877H8.75723H8.7557H8.75417H8.75264H8.75111H8.74958H8.74805H8.74652H8.74498H8.74345H8.74192H8.74039H8.73886H8.73733H8.7358H8.73426H8.73273H8.7312H8.72967H8.72814H8.72661H8.72508H8.72355H8.72201H8.72048H8.71895H8.71742H8.71589H8.71436H8.71283H8.7113H8.70976H8.70823H8.7067H8.70517H8.70364H8.70211H8.70058H8.69904H8.69751H8.69598H8.69445H8.69292H8.69139H8.68986H8.68832H8.68679H8.68526H8.68373H8.6822H8.68067H8.67914H8.67761H8.67607H8.67454H8.67301H8.67148H8.66995H8.66842H8.66689H8.66535H8.66382H8.66229H8.66076H8.65923H8.6577H8.65617H8.65463H8.6531H8.65157H8.65004H8.64851H8.64698H8.64545H8.64392H8.64238H8.64085H8.63932H8.63779H8.63626H8.63473H8.6332H8.63166H8.63013H8.6286H8.62707H8.62554H8.62401H8.62248H8.62095H8.61941H8.61788H8.61635H8.61482H8.61329H8.61176H8.61023H8.6087H8.60716H8.60563H8.6041H8.60257H8.60104H8.59951H8.59798H8.59644H8.59491H8.59338H8.59185H8.59032H8.58879H8.58726H8.58573H8.58419H8.58266H8.58113H8.5796H8.57807H8.57654H8.57501H8.57348H8.57194H8.57041H8.56888H8.56735H8.56582H8.56429H8.56276H8.56123H8.5597H8.55816H8.55663H8.5551H8.55357H8.55204H8.55051H8.54898H8.54745H8.54592H8.54438H8.54285H8.54132H8.53979H8.53826H8.53673H8.5352H8.53367H8.53214H8.5306H8.52907H8.52754H8.52601H8.52448H8.52295H8.52142H8.51989H8.51836H8.51683H8.5153H8.51376H8.51223H8.5107H8.50917H8.50764H8.50611H8.50458H8.50305H8.50152H8.49999H8.49846H8.49692H8.49539H8.49386H8.49233H8.4908H8.48927H8.48774H8.48621H8.48468H8.48315H8.48162H8.48009H8.47856H8.47702H8.47549H8.47396H8.47243H8.4709H8.46937H8.46784H8.46631H8.46478H8.46325H8.46172H8.46019H8.45866H8.45713H8.4556H8.45407H8.45253H8.451H8.44947H8.44794H8.44641H8.44488H8.44335H8.44182H8.44029H8.43876H8.43723H8.4357H8.43417H8.43264H8.43111H8.42958H8.42805H8.42652H8.42499H8.42346H8.42193H8.4204H8.41887H8.41734H8.41581H8.41428H8.41275H8.41122H8.40969H8.40816H8.40663H8.4051H8.40356H8.40203H8.4005H8.39897H8.39744H8.39591H8.39438H8.39285H8.39132H8.38979H8.38826H8.38673H8.38521H8.38368H8.38215H8.38062H8.37909H8.37756H8.37603H8.3745H8.37297H8.37144H8.36991H8.36838H8.36685H8.36532H8.36379H8.36226H8.36073H8.3592H8.35767H8.35614H8.35461H8.35308H8.35155H8.35002H8.34849H8.34696H8.34543H8.3439H8.34237H8.34085H8.33932H8.33779H8.33626H8.33473H8.3332H8.33167H8.33014H8.32861H8.32708H8.32555H8.32402H8.32249H8.32096H8.31944H8.31791H8.31638H8.31485H8.31332H8.31179H8.31026H8.30873H8.3072H8.30567H8.30415H8.30262H8.30109H8.29956H8.29803H8.2965H8.29497H8.29344H8.29191H8.29039H8.28886H8.28733H8.2858H8.28427H8.28274H8.28121H8.27969H8.27816H8.27663H8.2751H8.27357H8.27204H8.27051H8.26899H8.26746H8.26593H8.2644H8.26287H8.26134H8.25982H8.25829H8.25676H8.25523H8.2537H8.25217H8.25065H8.24912H8.24759H8.24606H8.24453H8.24301H8.24148H8.23995H8.23842H8.23689H8.23537H8.23384H8.23231H8.23078H8.22925H8.22773H8.2262H8.22467H8.22314H8.22162H8.22009H8.21856H8.21703H8.21551H8.21398H8.21245H8.21092H8.20939H8.20787H8.20634H8.20481H8.20329H8.20176H8.20023H8.1987H8.19718H8.19565H8.19412H8.19259H8.19107H8.18954H8.18801H8.18649H8.18496H8.18343H8.1819H8.18038H8.17885H8.17732H8.1758H8.17427H8.17274H8.17122H8.16969H8.16816H8.16664H8.16511H8.16358H8.16206H8.16053H8.159H8.15748H8.15595H8.15442H8.1529H8.15137H8.14984H8.14832H8.14679H8.14526H8.14374H8.14221H8.14069H8.13916H8.13763H8.13611H8.13458H8.13305H8.13153H8.13H8.12848H8.12695H8.12542H8.1239H8.12237H8.12085H8.11932H8.1178H8.11627H8.11474H8.11322H8.11169H8.11017H8.10864H8.08827L8.06952 0.90797C8.05122 0.91575 8.02978 0.926889 8.01402 0.935072C8.00815 0.938121 8.00308 0.940759 7.99924 0.942661C7.97989 0.952263 7.96974 0.955567 7.96335 0.956508L7.96333 0.956511C6.93611 1.10789 6.11004 1.65273 5.43049 2.46502C4.4638 3.62038 3.95319 5.17773 3.90394 6.75375C3.85469 8.32986 4.26655 9.93329 5.15569 11.182C6.05918 12.4519 7.27619 13.0984 8.50086 13.1C9.72569 13.1016 10.9402 12.4579 11.8383 11.184L11.7565 11.1264L11.8383 11.184C12.956 9.59835 13.2836 7.78031 13.0073 5.84103L13.0073 5.84102C12.772 4.1922 12.0992 2.79138 10.8423 1.76064L10.8423 1.76061C10.2607 1.28418 9.59337 1.06383 8.91506 0.902707ZM11.1686 4.02199L11.1686 4.02202C11.676 4.93431 11.8914 5.93521 11.9177 7.06804C11.8708 8.4805 11.5121 9.81862 10.523 10.8654C9.88634 11.538 9.13044 11.8487 8.39108 11.8189C7.65147 11.7891 6.91555 11.4178 6.32046 10.7016C5.52272 9.74032 5.10928 8.41894 5.09166 7.08553C5.07404 5.75215 5.45237 4.41736 6.22472 3.42966L6.22476 3.42961C6.95483 2.49476 7.88878 2.10602 8.7837 2.2123C9.6802 2.31876 10.5586 2.9246 11.1686 4.02199Z" fill="white" stroke="white" stroke-width="0.2"/>
</svg>
